<svg xmlns="http://www.w3.org/2000/svg" width="55" height="55" viewBox="0 0 55 55">
  <g id="Group_71" data-name="Group 71" transform="translate(-217 -49)">
    <g id="Rectangle_120" data-name="Rectangle 120" transform="translate(217 49)" fill="none" stroke="#fff" stroke-width="2">
      <rect width="55" height="55" rx="27.5" stroke="none"/>
      <rect x="1" y="1" width="53" height="53" rx="26.5" fill="none"/>
    </g>
    <g id="video-off" transform="translate(232 64)">
      <path id="Path_136" data-name="Path 136" d="M17.364,17v1.091a2.182,2.182,0,0,1-2.182,2.182h-12A2.182,2.182,0,0,1,1,18.091V7.182A2.182,2.182,0,0,1,3.182,5H5.364m6.175,0h3.644a2.182,2.182,0,0,1,2.182,2.182v3.644l1.091,1.091L25,7.182V18.091" transform="translate(0 0.364)" fill="none" stroke="#e4e6ea" stroke-linecap="round" stroke-linejoin="round" stroke-width="2"/>
      <line id="Line_27" data-name="Line 27" x2="24" y2="24" transform="translate(1 1)" fill="none" stroke="#e4e6ea" stroke-linecap="round" stroke-linejoin="round" stroke-width="2"/>
    </g>
  </g>
</svg>
