<?xml version="1.0" encoding="utf-8"?>
<!-- Generator: Adobe Illustrator 15.0.0, SVG Export Plug-In . SVG Version: 6.00 Build 0)  -->
<!DOCTYPE svg PUBLIC "-//W3C//DTD SVG 1.1//EN" "http://www.w3.org/Graphics/SVG/1.1/DTD/svg11.dtd">
<svg version="1.1" id="Layer_1" xmlns="http://www.w3.org/2000/svg" xmlns:xlink="http://www.w3.org/1999/xlink" x="0px" y="0px"
	 width="115px" height="100px" viewBox="0 0 115 100" enable-background="new 0 0 115 100" xml:space="preserve">
<g transform="translate(1 1)">
	<g>
		<g>
			<path fill="#1DAEFC" d="M101.5,95.666h-10v-95c0-1-0.666-1.667-1.666-1.667H23.167c-1,0-1.667,0.667-1.667,1.667v95h-10
				c-1,0-1.667,0.667-1.667,1.667S10.5,99,11.5,99h11.667h6.667h53.333h6.667H101.5c1,0,1.666-0.666,1.666-1.666
				S102.5,95.666,101.5,95.666z M31.5,95.666V9h50v86.666H31.5z M84.834,95.666V7.333c0-1-0.667-1.667-1.667-1.667H29.833
				c-1,0-1.667,0.667-1.667,1.667v88.333h-3.333V2.333h63.333v93.333L84.834,95.666L84.834,95.666z"/>
			<path fill="#1DAEFC" d="M76.5,47.333h-6.666c-1,0-1.667,0.667-1.667,1.667v1.666h-3.333c-1,0-1.667,0.667-1.667,1.667
				S63.834,54,64.834,54h3.333v1.666c0,1,0.667,1.667,1.667,1.667H76.5c1,0,1.666-0.667,1.666-1.667V49
				C78.166,48,77.5,47.333,76.5,47.333z M74.834,54H71.5v-3.334h3.334V54z"/>
		</g>
	</g>
</g>
</svg>
