<?xml version="1.0" encoding="utf-8"?>
<!-- Generator: Adobe Illustrator 15.0.0, SVG Export Plug-In . SVG Version: 6.00 Build 0)  -->
<!DOCTYPE svg PUBLIC "-//W3C//DTD SVG 1.1//EN" "http://www.w3.org/Graphics/SVG/1.1/DTD/svg11.dtd">
<svg version="1.1" id="Layer_1" xmlns="http://www.w3.org/2000/svg" xmlns:xlink="http://www.w3.org/1999/xlink" x="0px" y="0px"
	 width="512px" height="512px" viewBox="0 0 512 512" enable-background="new 0 0 512 512" xml:space="preserve">
<path fill="#1DAEFC" d="M452.824,425.06h-54.492V79.94c0-3.562-2.676-6.555-6.216-6.952l-184-20.768
	c-3.842-0.433-7.307,2.33-7.74,6.172c-0.029,0.26-0.044,0.522-0.044,0.784V72.94h-79.664c-3.866,0-7,3.134-7,7v345.12H59.176
	c-3.866,0-7,3.135-7,7c0,3.866,3.134,7,7,7l0,0h141.156v13.765c0,3.866,3.134,7,7,7c0.267,0.002,0.535-0.013,0.8-0.044
	l183.601-20.721h61.104c3.866,0,7-3.134,7-7c0-3.865-3.134-7-7-7H452.824z M127.668,86.94h72.664v18h-47.668c-3.866,0-7,3.134-7,7
	v313.12h-18L127.668,86.94z M159.668,425.06V118.94h40.664v306.12H159.668z M214.332,67.008l170,19.2v339.6l-170,19.2V67.008z"/>
<path fill="#1DAEFC" d="M244.5,235.168c-11.505,0-20.832,9.327-20.832,20.832c0,11.506,9.327,20.832,20.832,20.832
	s20.832-9.326,20.832-20.832l0,0C265.318,244.5,256,235.181,244.5,235.168z M244.5,262.832c-3.773,0-6.832-3.059-6.832-6.832
	s3.059-6.832,6.832-6.832s6.832,3.059,6.832,6.832C251.328,259.771,248.271,262.828,244.5,262.832z"/>
</svg>
