<?xml version="1.0" encoding="utf-8"?>
<!-- Generator: Adobe Illustrator 15.0.0, SVG Export Plug-In . SVG Version: 6.00 Build 0)  -->
<!DOCTYPE svg PUBLIC "-//W3C//DTD SVG 1.1//EN" "http://www.w3.org/Graphics/SVG/1.1/DTD/svg11.dtd">
<svg version="1.1" id="Layer_1" xmlns="http://www.w3.org/2000/svg" xmlns:xlink="http://www.w3.org/1999/xlink" x="0px" y="0px"
	 width="512px" height="512px" viewBox="0 0 512 512" enable-background="new 0 0 512 512" xml:space="preserve">
<path fill="#EF5350" d="M336,512H48c-26.453,0-48-21.523-48-48V240c0-26.477,21.547-48,48-48h288c26.453,0,48,21.523,48,48v224
	C384,490.477,362.453,512,336,512z M48,224c-8.813,0-16,7.168-16,16v224c0,8.832,7.188,16,16,16h288c8.813,0,16-7.168,16-16V240
	c0-8.832-7.188-16-16-16H48z"/>
<path fill="#EF5350" d="M304,224c-8.832,0-16-7.168-16-16v-80c0-52.93-43.07-96-96-96s-96,43.07-96,96v80c0,8.832-7.168,16-16,16
	s-16-7.168-16-16v-80C64,57.406,121.406,0,192,0s128,57.406,128,128v80C320,216.832,312.832,224,304,224z"/>
</svg>
