<?xml version="1.0" encoding="utf-8"?>
<!-- Generator: Adobe Illustrator 15.0.0, SVG Export Plug-In . SVG Version: 6.00 Build 0)  -->
<!DOCTYPE svg PUBLIC "-//W3C//DTD SVG 1.1//EN" "http://www.w3.org/Graphics/SVG/1.1/DTD/svg11.dtd">
<svg version="1.1" id="Capa_1" xmlns="http://www.w3.org/2000/svg" xmlns:xlink="http://www.w3.org/1999/xlink" x="0px" y="0px"
	 width="115px" height="100px" viewBox="0 0 115 100" enable-background="new 0 0 115 100" xml:space="preserve">
<g>
	<g>
		<path fill="#36E676" d="M46.594,56.326C16.547,56.326,0,70.54,0,96.352C0,98.366,1.634,100,3.649,100h85.888
			c2.018,0,3.65-1.634,3.65-3.648C93.188,70.541,76.641,56.326,46.594,56.326z M7.432,92.701
			c1.436-19.299,14.592-29.076,39.162-29.076c24.57,0,37.727,9.777,39.163,29.076H7.432z"/>
	</g>
</g>
<g>
	<g>
		<path fill="#36E676" d="M46.594,0C32.792,0,22.385,10.617,22.385,24.695c0,14.49,10.86,26.278,24.209,26.278
			c13.35,0,24.209-11.788,24.209-26.277C70.803,10.617,60.396,0,46.594,0z M46.594,43.674c-9.325,0-16.91-8.513-16.91-18.978
			c0-10.08,7.112-17.396,16.91-17.396c9.641,0,16.91,7.478,16.91,17.396C63.504,35.161,55.918,43.674,46.594,43.674z"/>
	</g>
</g>
<path fill="#36E676" d="M104.324,44.478H94.35v-9.973c0-1.807-1.463-3.271-3.27-3.271s-3.271,1.463-3.271,3.271v9.973h-9.975
	c-1.807,0-3.271,1.465-3.271,3.271c0,1.807,1.465,3.271,3.271,3.271h9.975v9.975c0,1.806,1.465,3.271,3.271,3.271
	s3.27-1.466,3.27-3.271V51.02h9.976c1.806,0,3.271-1.463,3.271-3.271C107.594,45.943,106.13,44.478,104.324,44.478z"/>
</svg>
